<?xml version="1.0" ?><!DOCTYPE svg  PUBLIC '-//W3C//DTD SVG 1.1//EN'  'http://www.w3.org/Graphics/SVG/1.1/DTD/svg11.dtd'><svg enable-background="new 0 0 64 64" height="64px" id="Ebay" version="1.1" viewBox="0 0 64 64" width="64px" xml:space="preserve" xmlns="http://www.w3.org/2000/svg" xmlns:xlink="http://www.w3.org/1999/xlink"><linearGradient gradientTransform="matrix(1 0 0 1 -548 -727)" gradientUnits="userSpaceOnUse" id="Circle_Shadow_1_" x1="612.0303" x2="580.0302" y1="791.001" y2="759.0009"><stop offset="0.3163" style="stop-color:#FFFFFF;stop-opacity:0"/><stop offset="0.3508" style="stop-color:#E9E9E9;stop-opacity:0.0504"/><stop offset="0.4543" style="stop-color:#ACACAC;stop-opacity:0.2018"/><stop offset="0.5572" style="stop-color:#787878;stop-opacity:0.3523"/><stop offset="0.6569" style="stop-color:#4D4D4D;stop-opacity:0.4981"/><stop offset="0.7528" style="stop-color:#2B2B2B;stop-opacity:0.6385"/><stop offset="0.8441" style="stop-color:#131313;stop-opacity:0.7719"/><stop offset="0.9286" style="stop-color:#050505;stop-opacity:0.8956"/><stop offset="1" style="stop-color:#000000"/></linearGradient><polygon enable-background="new    " fill="url(#Circle_Shadow_1_)" id="Circle_Shadow" opacity="0.2" points="64.029,64   64.029,30.059 49,15.029 15.059,48.971 30.088,64 "/><circle cx="32" cy="32" fill="#8E8E8E" id="Circle" r="24"/><g id="Ebay_Shadow"><g><defs><circle cx="32.029" cy="32" id="SVGID_1_" r="24"/></defs><clipPath id="SVGID_2_"><use overflow="visible" xlink:href="#SVGID_1_"/></clipPath><linearGradient gradientTransform="matrix(1 0 0 -1 -274 -299)" gradientUnits="userSpaceOnUse" id="SVGID_3_" x1="348.7578" x2="296.0217" y1="-372.9321" y2="-320.196"><stop offset="0.5612" style="stop-color:#000000;stop-opacity:0"/><stop offset="0.5819" style="stop-color:#000000;stop-opacity:0.0471"/><stop offset="1" style="stop-color:#000000"/></linearGradient><path clip-path="url(#SVGID_2_)" d="M82.88,60.066l0.04-0.08    h-0.121l0.041-0.08h-0.119l0.04-0.079h-0.12l0.041-0.08h-0.121l0.041-0.08h-0.119l0.039-0.079H82.4l0.041-0.08H82.32l0.041-0.08    h-0.119l0.04-0.078h-0.121l0.041-0.08h-0.121l0.041-0.08h-0.12l0.04-0.08h-0.12l0.041-0.08h-0.121l0.041-0.079h-0.121l0.041-0.08    h-0.121l0.041-0.08h-0.119l0.041-0.079h-0.121l0.041-0.08h-0.121l0.041-0.08h-0.119l0.039-0.078h-0.12l0.041-0.08h-0.121    l0.041-0.08h-0.119l0.04-0.08h-0.121l0.041-0.08h-0.121l0.041-0.079h-0.12l0.04-0.079h-0.119l0.041-0.08h-0.121l0.041-0.08h-0.121    l0.041-0.08h-0.121l0.041-0.08h-0.119l0.039-0.079h-0.121l0.041-0.079h-0.12l0.041-0.08h-0.119l0.04-0.08h-0.121l0.041-0.08    h-0.121l0.041-0.08h-0.12l0.04-0.078h-0.12l0.041-0.08h-0.12l0.041-0.08h-0.119l0.039-0.079h-0.121l0.041-0.08h-0.121l0.041-0.08    h-0.121l0.041-0.079h-0.119l0.041-0.08h-0.12l0.04-0.08h-0.121l0.041-0.08h-0.121l0.041-0.08H79.13l0.04-0.078h-0.121l0.041-0.08    h-0.121l0.041-0.08h-0.119l0.039-0.079h-0.119l0.041-0.08H78.73l0.041-0.08h-0.119l0.039-0.079H78.57l0.041-0.08H78.49l0.041-0.08    H78.41l0.041-0.08H78.33l0.041-0.08h-0.119l0.04-0.078h-0.121l0.041-0.08h-0.121l0.041-0.08h-0.118l0.039-0.079h-0.121l0.041-0.08    h-0.121l0.041-0.08h-0.119l0.041-0.079h-0.121l0.041-0.08h-0.121l0.041-0.08h-0.12l0.04-0.078h-0.12l0.041-0.08h-0.121l0.041-0.08    h-0.121l0.041-0.08h-0.121l0.041-0.08h-0.119l0.04-0.079h-0.121l0.041-0.08h-0.119l0.041-0.08h-0.121l0.041-0.079h-0.121    l0.041-0.08h-0.121l0.041-0.08h-0.119l0.039-0.078h-0.12l0.041-0.08h-0.121l0.041-0.08h-0.12l0.04-0.08h-0.12l0.041-0.08h-0.121    l0.041-0.079h-0.121l0.041-0.08H76.1l0.041-0.08H76.02l0.041-0.079h-0.121l0.041-0.08h-0.121l0.041-0.08h-0.119l0.039-0.078    h-0.121l0.041-0.08h-0.12l0.041-0.08h-0.12l0.04-0.08h-0.12l0.041-0.08h-0.121l0.041-0.079h-0.121l0.041-0.08h-0.12l0.04-0.079    h-0.119l0.041-0.08h-0.121l0.041-0.08h-0.121l0.041-0.08H74.9l0.039-0.078h-0.121l0.041-0.08H74.74l0.039-0.08H74.66l0.041-0.08    H74.58l0.041-0.08H74.5l0.041-0.08H74.42l0.041-0.079h-0.12l0.04-0.079h-0.12l0.041-0.08h-0.12l0.041-0.08h-0.119l0.039-0.079    h-0.121l0.041-0.08h-0.121l0.041-0.079h-0.121l0.041-0.08h-0.118l0.04-0.08h-0.121l0.041-0.08h-0.12l0.04-0.078h-0.12l0.041-0.08    h-0.121l0.041-0.08h-0.121l0.041-0.08h-0.12l0.041-0.08h-0.119l0.039-0.079h-0.121l0.041-0.08h-0.119l0.041-0.08h-0.121    l0.041-0.079h-0.121l0.041-0.08h-0.121l0.041-0.08h-0.121l0.041-0.08h-0.119l0.04-0.078h-0.121l0.041-0.08h-0.121l0.041-0.08    h-0.119l0.04-0.079h-0.121l0.041-0.08h-0.121l0.041-0.08h-0.121l0.041-0.08h-0.119l0.041-0.079h-0.121l0.041-0.08h-0.121    l0.041-0.08h-0.119l0.04-0.078H71.79l0.041-0.08H71.71l0.041-0.08H71.63l0.041-0.08h-0.119l0.04-0.079h-0.121l0.041-0.08h-0.119    l0.041-0.08h-0.121l0.041-0.079h-0.121l0.041-0.08h-0.121l0.041-0.08h-0.121l0.041-0.08H70.99l0.039-0.078h-0.12l0.041-0.08    h-0.121l0.041-0.08h-0.119l0.04-0.079H70.67l0.041-0.08H70.59l0.041-0.08h-0.12l0.041-0.08h-0.12l0.041-0.079h-0.121l0.041-0.08    h-0.121l0.041-0.08h-0.119l0.039-0.078h-0.121l0.041-0.08h-0.12l0.04-0.08h-0.12l0.041-0.08h-0.12l0.04-0.08h-0.12l0.041-0.079    h-0.12l0.041-0.08h-0.12l0.04-0.079h-0.12l0.04-0.08h-0.12l0.041-0.08h-0.121l0.041-0.08h-0.119l0.039-0.078h-0.121l0.041-0.08    h-0.121l0.041-0.08h-0.118l0.04-0.08h-0.121l0.041-0.08h-0.121l0.041-0.08h-0.121l0.041-0.079h-0.119l0.04-0.079h-0.121    l0.041-0.08h-0.12l0.041-0.08H68.52l0.039-0.079h-0.121l0.041-0.08h-0.121l0.041-0.079h-0.121l0.041-0.08h-0.119l0.041-0.08h-0.12    l0.04-0.08h-0.121l0.041-0.08h-0.119l0.04-0.078H67.88L67.921,45H67.8l0.041-0.08H67.72l0.041-0.08h-0.118l0.039-0.079h-0.121    l0.041-0.08H67.48l0.041-0.08h-0.119l0.041-0.079h-0.121l0.041-0.08h-0.121l0.041-0.08h-0.121l0.041-0.08h-0.121l0.041-0.08H67    l0.04-0.078h-0.121l0.041-0.08h-0.119l0.04-0.079H66.76l0.041-0.08H66.68l0.041-0.08H66.6l0.041-0.08h-0.119l0.039-0.079h-0.119    l0.041-0.08h-0.123l0.041-0.08h-0.118l0.04-0.078h-0.121l0.041-0.08h-0.121l0.041-0.08h-0.121l0.041-0.08h-0.121l0.041-0.08    h-0.119l0.04-0.079h-0.118l0.039-0.079h-0.121l0.041-0.08h-0.121l0.041-0.08h-0.121l0.041-0.08h-0.119l0.041-0.08h-0.121    l0.039-0.078h-0.119l0.041-0.08h-0.121l0.041-0.08h-0.119l0.04-0.079h-0.121l0.041-0.08h-0.121l0.041-0.08h-0.121l0.041-0.08    h-0.118l0.039-0.079h-0.121l0.041-0.08h-0.121l0.041-0.08h-0.119l0.041-0.078h-0.121l0.041-0.08h-0.121l0.041-0.08h-0.121    l0.041-0.08h-0.12l0.041-0.08h-0.12l0.04-0.079h-0.121l0.041-0.08h-0.12l0.04-0.079h-0.12l0.041-0.08h-0.121l0.041-0.08h-0.121    l0.041-0.08h-0.121l0.041-0.08H63.65l0.041-0.078H63.57l0.041-0.08H63.49l0.041-0.08h-0.12l0.041-0.08h-0.12l0.04-0.08h-0.121    l0.041-0.079h-0.12l0.041-0.08h-0.121l0.04-0.079h-0.12l0.041-0.08h-0.119l0.041-0.079H62.85l0.041-0.08H62.77l0.041-0.079h-0.121    l0.041-0.08h-0.119l0.041-0.08h-0.123l0.041-0.08h-0.12l0.041-0.08h-0.119l0.04-0.078h-0.121l0.041-0.08h-0.121l0.041-0.08h-0.121    l0.041-0.08h-0.12l0.041-0.08h-0.12l0.041-0.079h-0.121l0.041-0.079h-0.121l0.041-0.08h-0.121l0.041-0.08h-0.121l0.041-0.08h-0.12    l0.041-0.08h-0.121l0.041-0.08h-0.119l0.04-0.078h-0.119l0.04-0.079h-0.122l0.041-0.08h-0.12l0.041-0.081h-0.12l0.041-0.079    h-0.121l0.041-0.08h-0.121l0.041-0.079h-0.119l0.039-0.08h-0.121l0.041-0.08h-0.118l0.04-0.078h-0.121l0.041-0.08h-0.121    l0.041-0.08h-0.121l0.041-0.08h-0.119l0.04-0.079h-0.121l0.041-0.08h-0.12l0.041-0.08h-0.119l0.039-0.079h-0.121l0.041-0.08    h-0.121l0.041-0.08h-0.121l0.041-0.08h-0.121l0.041-0.08h-0.118l0.04-0.078H59.66l0.041-0.08h-0.119l0.04-0.079h-0.121l0.041-0.08    h-0.121l0.041-0.08h-0.121l0.041-0.08h-0.12l0.041-0.08H59.18l0.041-0.079H59.1l0.041-0.078H59.02l0.041-0.08h-0.121l0.041-0.082    h-0.121l0.041-0.078h-0.121l0.041-0.08H58.7l0.041-0.08H58.62l0.04-0.079h-0.12l0.041-0.08h-0.119l0.04-0.079h-0.121l0.041-0.08    h-0.121l0.041-0.08h-0.121l0.041-0.08h-0.119l0.041-0.078h-0.121l0.041-0.08h-0.121l0.041-0.08h-0.121l0.041-0.08h-0.119    l0.04-0.08h-0.121l0.041-0.079h-0.121l0.041-0.08h-0.12l0.041-0.08h-0.12l0.04-0.079h-0.121l0.041-0.08h-0.121l0.041-0.08h-0.119    l0.041-0.078h-0.121l0.041-0.08h-0.121l0.041-0.08h-0.121l0.041-0.08h-0.119l0.039-0.08h-0.119L56.907,34h-0.121l0.041-0.081    h-0.12l0.041-0.08h-0.12l0.04-0.079h-0.121l0.041-0.08h-0.121l0.041-0.08h-0.119l0.041-0.079h-0.121l0.041-0.079H56.23l0.039-0.08    h-0.121l0.041-0.08h-0.121l0.041-0.08h-0.12l0.041-0.08h-0.119l0.04-0.078H55.83l0.041-0.08H55.75l0.041-0.08H55.67l0.041-0.08    h-0.119l0.04-0.079h-0.12l0.041-0.08h-0.121l0.041-0.08h-0.121l0.041-0.08H55.27l0.041-0.079h-0.121l0.041-0.08h-0.121l0.041-0.08    h-0.121l0.041-0.08h-0.12l0.041-0.08H54.87l0.041-0.08H54.79l0.041-0.08h-0.12l0.041-0.08h-0.119l0.04-0.079H54.55l0.041-0.08    h-0.12l0.041-0.081h-0.119l0.039-0.079h-0.119l0.041-0.08H54.23l0.041-0.08H54.15l0.041-0.08h-0.119l0.039-0.08h-0.119l0.04-0.08    h-0.12l0.041-0.08h-0.121l0.041-0.08h-0.12l0.04-0.079h-0.119l0.04-0.08h-0.121l0.041-0.081h-0.12l0.041-0.08h-0.121l0.041-0.08    h-0.121l0.041-0.08h-0.121l0.041-0.08h-0.121l0.041-0.08h-0.119l0.041-0.08h-0.12l0.04-0.079h-0.121l0.041-0.08h-0.121l0.041-0.08    h-0.119l0.04-0.079h-0.121l0.041-0.081h-0.12l0.041-0.079h-0.121l0.041-0.08h-0.119l0.039-0.08h-0.121l0.041-0.08h-0.121    l0.041-0.08h-0.119l0.041-0.08h-0.121l0.041-0.08h-0.121l0.041-0.08h-0.12l0.041-0.081h-0.12l0.04-0.079h-0.121l0.041-0.08h-0.12    l0.04-0.08h-0.12l0.041-0.08H51.6l0.041-0.08h-0.119l0.039-0.079h-0.121l0.041-0.08h-0.118l0.04-0.08h-0.121l0.041-0.08h-0.12    l0.04-0.08h-0.12l0.041-0.08h-0.121l0.04-0.08h-0.12L51,28.066h-2.006l-2.186,4.342l-0.017-0.033h-0.04l-0.04-0.08h-0.04    l-0.04-0.08h-0.039l-0.04-0.08h-0.039l-0.039-0.08h-0.041l-0.039-0.08h-0.041l-0.039-0.08h-0.041l-0.039-0.08h-0.041l-0.039-0.079    h-0.041l-0.039-0.08h-0.04l-0.04-0.081h-0.039l-0.04-0.079h-0.04l-0.04-0.08h-0.04l-0.04-0.08h-0.04l-0.04-0.08h-0.039l-0.04-0.08    h-0.039l-0.041-0.08h-0.039l-0.039-0.08h-0.041l-0.039-0.08h-0.041l-0.039-0.079h-0.039l-0.041-0.08h-0.039l-0.04-0.081h-0.04    l-0.04-0.08h-0.04l-0.04-0.08h-0.039l-0.04-0.08h-0.04l-0.04-0.08h-0.04l-0.04-0.08h-0.04l-0.04-0.08H44.6l-0.039-0.079H44.52    l-0.039-0.08h-0.041l-0.039-0.08h-0.039l-0.041-0.079h-0.039l-0.041-0.081h-0.039l-0.04-0.079h-0.04l-0.04-0.08H44.04L44,29.583    h-0.04l-0.04-0.08h-0.04l-0.04-0.08h-0.039l-0.04-0.08h-0.04l-0.039-0.08h-0.041l-0.039-0.08h-0.041l-0.039-0.081h-0.039    l-0.041-0.079h-0.039l-0.041-0.08h-0.039l-0.04-0.08h-0.039l-0.04-0.08h-0.04l-0.04-0.08h-0.04l-0.04-0.079h-0.04l-0.04-0.08    h-0.039l-0.04-0.08h-0.04l-0.039-0.08h-0.039l-0.041-0.08h-0.039l-0.041-0.08h-0.039l-0.041-0.08h-0.039l-0.041-0.08h-2.221    l0.549,1.035c-0.016-0.016-0.033-0.03-0.049-0.045c-0.025-0.027-0.054-0.053-0.08-0.079c-0.024-0.028-0.055-0.054-0.082-0.082    c-0.552-0.608-1.55-1.102-3.373-1.178c0,0-3.953-0.359-4.361,2.584h0.098c-0.004,0.028-0.014,0.051-0.018,0.08h0.098    c-0.005,0.028-0.016,0.051-0.02,0.08h0.1c-0.005,0.028-0.016,0.051-0.02,0.08h0.099c-0.004,0.028-0.015,0.051-0.019,0.08h0.1    c-0.006,0.028-0.016,0.051-0.02,0.08h0.098c-0.004,0.028-0.014,0.051-0.019,0.079h0.099c-0.004,0.028-0.015,0.052-0.019,0.081    h0.099c-0.004,0.028-0.015,0.051-0.019,0.08h0.099c-0.004,0.028-0.015,0.051-0.019,0.08h0.097    c-0.004,0.028-0.014,0.051-0.018,0.08h0.099c-0.005,0.028-0.015,0.051-0.019,0.08h0.099c-0.005,0.028-0.015,0.051-0.019,0.08    h0.097c-0.004,0.028-0.015,0.051-0.019,0.08H34c-0.004,0.028-0.014,0.051-0.018,0.08h0.098c-0.004,0.028-0.014,0.051-0.018,0.08    h0.099c-0.005,0.028-0.015,0.052-0.019,0.081h0.059c-0.111,0.038-0.219,0.08-0.326,0.125c-0.002-0.001-0.004-0.002-0.006-0.004    c-0.027-0.025-0.051-0.053-0.078-0.078c-0.027-0.026-0.053-0.056-0.081-0.081c-0.026-0.025-0.051-0.054-0.079-0.079    c-0.027-0.026-0.052-0.056-0.081-0.081c-0.026-0.026-0.051-0.054-0.079-0.079c-0.027-0.026-0.051-0.055-0.078-0.079    c-0.027-0.026-0.053-0.056-0.08-0.081c-0.027-0.026-0.053-0.055-0.08-0.08c-0.027-0.026-0.053-0.055-0.08-0.08    c-0.027-0.026-0.053-0.055-0.08-0.08c-0.026-0.026-0.051-0.054-0.078-0.079c-0.028-0.026-0.053-0.056-0.081-0.081    c-0.027-0.025-0.052-0.054-0.08-0.079c-0.026-0.026-0.052-0.055-0.079-0.08s-0.052-0.054-0.08-0.079    c-0.027-0.026-0.052-0.055-0.08-0.08c-0.027-0.026-0.051-0.055-0.078-0.08c-0.029-0.026-0.053-0.055-0.082-0.081    c-0.027-0.025-0.051-0.054-0.078-0.079c-0.028-0.026-0.053-0.056-0.082-0.082c-0.027-0.025-0.05-0.054-0.078-0.078    c-0.027-0.026-0.052-0.055-0.08-0.08c-0.028-0.026-0.052-0.055-0.081-0.08c-0.027-0.026-0.051-0.055-0.079-0.08    c-0.028-0.027-0.053-0.056-0.082-0.082c-0.026-0.025-0.05-0.053-0.077-0.077c-0.028-0.026-0.052-0.056-0.081-0.081    c-0.027-0.025-0.051-0.054-0.078-0.079c-0.028-0.026-0.053-0.056-0.082-0.081c-0.027-0.025-0.051-0.054-0.079-0.079    c-0.027-0.026-0.051-0.055-0.08-0.08c-0.027-0.026-0.051-0.055-0.079-0.08c-0.028-0.026-0.053-0.055-0.081-0.081    c-0.027-0.026-0.052-0.055-0.08-0.08c-0.852-0.803-2.024-1.235-3.247-1.241c-0.023,0-0.042,0.004-0.064,0.004v-0.016h-0.08v-0.08    h-0.08v-0.08h-0.08v-0.08h-0.08v-0.08h-0.08v-0.08h-0.08v-0.08h-0.08v-0.08h-0.08v-0.079h-0.08v-0.081h-0.08v-0.08h-0.08v-0.08    h-0.08v-0.079h-0.08v-0.08h-0.08v-0.08h-0.08v-0.08h-0.08v-0.079h-0.08v-0.08h-0.08v-0.08H26.33v-0.079h-0.08v-0.081h-0.08v-0.079    h-0.08v-0.08h-0.08v-0.08h-0.08v-0.08h-0.08v-0.08h-0.08v-0.08h-0.08v-0.08h-0.079V25.5h-0.08v-0.08h-0.08v-0.08h-0.08v-0.08    h-0.08v-0.08h-0.08V25.1h-0.08v-0.08h-0.08v-0.08h-0.08v-0.08h-0.079v-0.08h-0.08V24.7h-0.08v-0.08h-0.08v-0.08h-0.08v-0.08h-0.08    v-0.08h-1.916l0.018,5.792c-0.006-0.006-0.014-0.011-0.02-0.017c-0.027-0.027-0.054-0.056-0.083-0.083    c-0.026-0.026-0.051-0.053-0.079-0.078c-0.026-0.026-0.051-0.053-0.079-0.079c-0.027-0.028-0.054-0.056-0.083-0.083    c-0.026-0.026-0.051-0.053-0.079-0.079c-0.027-0.026-0.052-0.054-0.08-0.08c-0.027-0.027-0.052-0.054-0.08-0.08    c-0.026-0.026-0.051-0.053-0.078-0.078c-0.028-0.028-0.054-0.056-0.083-0.083c-0.025-0.025-0.05-0.051-0.077-0.077    c-0.027-0.028-0.054-0.056-0.083-0.083c-0.026-0.026-0.051-0.052-0.078-0.078c-0.028-0.027-0.054-0.055-0.083-0.082    c-0.025-0.025-0.049-0.051-0.075-0.076c-0.028-0.028-0.055-0.057-0.084-0.084c-0.697-0.697-1.778-1.212-3.463-1.212    c-4.751-0.002-4.937,3.697-4.911,4.657c0,0-0.089,1.746,1.135,3.019c0.023,0.025,0.051,0.05,0.076,0.075    c0.027,0.03,0.058,0.058,0.087,0.088c0.022,0.024,0.05,0.048,0.074,0.071c0.025,0.029,0.055,0.056,0.082,0.084    c0.025,0.027,0.055,0.054,0.081,0.08c0.024,0.026,0.053,0.052,0.078,0.078c0.024,0.026,0.053,0.051,0.079,0.078    c0.025,0.028,0.055,0.055,0.082,0.082c0.025,0.027,0.054,0.053,0.08,0.08c0.025,0.026,0.054,0.053,0.08,0.079    c0.024,0.027,0.053,0.054,0.079,0.079c0.025,0.027,0.056,0.055,0.083,0.082c0.024,0.025,0.052,0.052,0.077,0.077    c0.025,0.026,0.054,0.053,0.08,0.079c0.025,0.027,0.054,0.055,0.081,0.082c0.025,0.027,0.055,0.053,0.081,0.08    c0.024,0.026,0.053,0.052,0.079,0.078c0.025,0.027,0.054,0.054,0.081,0.08c0.025,0.027,0.055,0.055,0.081,0.082    c0.024,0.025,0.052,0.051,0.077,0.075c0.024,0.027,0.053,0.054,0.079,0.08c0.026,0.028,0.057,0.056,0.084,0.084    c0.023,0.026,0.052,0.052,0.077,0.076c0.025,0.028,0.055,0.054,0.081,0.081c0.024,0.027,0.054,0.053,0.08,0.079    c0.025,0.028,0.055,0.055,0.082,0.082c0.023,0.024,0.051,0.05,0.076,0.075c0.026,0.027,0.056,0.056,0.083,0.084    c0.024,0.025,0.053,0.052,0.079,0.078c0.025,0.027,0.056,0.055,0.082,0.082c0.024,0.025,0.052,0.051,0.077,0.076    c0.024,0.027,0.054,0.053,0.08,0.08c0.025,0.027,0.055,0.055,0.082,0.081c0.024,0.027,0.054,0.054,0.08,0.08    c0.023,0.026,0.052,0.051,0.077,0.076c0.026,0.028,0.056,0.056,0.083,0.084c0.024,0.026,0.053,0.052,0.079,0.078    c0.025,0.028,0.054,0.054,0.081,0.081c0.024,0.025,0.052,0.051,0.077,0.076c0.026,0.028,0.056,0.056,0.083,0.084    c0.025,0.026,0.054,0.053,0.08,0.08c0.024,0.025,0.053,0.051,0.078,0.076c0.025,0.027,0.054,0.055,0.081,0.081    c0.024,0.026,0.052,0.052,0.078,0.077c0.026,0.029,0.057,0.057,0.084,0.085c0.023,0.025,0.05,0.05,0.074,0.074    c0.026,0.028,0.056,0.055,0.083,0.083c0.025,0.027,0.054,0.053,0.08,0.08c0.024,0.027,0.054,0.053,0.08,0.078    c0.024,0.027,0.053,0.053,0.079,0.08s0.055,0.054,0.082,0.08c0.024,0.027,0.053,0.053,0.078,0.078    c0.025,0.027,0.054,0.055,0.08,0.08c0.024,0.027,0.053,0.053,0.079,0.079c0.026,0.028,0.056,0.056,0.083,0.085    c0.023,0.024,0.052,0.051,0.077,0.075c0.025,0.027,0.054,0.054,0.081,0.081c0.025,0.027,0.054,0.053,0.081,0.08    c0.024,0.025,0.052,0.052,0.078,0.078c0.025,0.027,0.055,0.054,0.081,0.081c0.024,0.026,0.053,0.052,0.079,0.077    c0.026,0.029,0.057,0.057,0.083,0.084c0.023,0.025,0.051,0.05,0.075,0.074c0.026,0.028,0.056,0.056,0.083,0.084    c0.024,0.026,0.053,0.053,0.079,0.078c0.025,0.027,0.055,0.055,0.081,0.082c0.025,0.026,0.054,0.053,0.08,0.078    c0.024,0.026,0.052,0.051,0.076,0.076c0.026,0.029,0.057,0.057,0.085,0.086c0.024,0.025,0.052,0.051,0.078,0.076    c0.024,0.027,0.052,0.052,0.078,0.078c0.026,0.029,0.057,0.057,0.085,0.086c0.022,0.023,0.05,0.048,0.073,0.072    c0.026,0.028,0.057,0.057,0.084,0.086c0.024,0.025,0.054,0.052,0.079,0.078s0.054,0.053,0.08,0.08    c0.024,0.026,0.054,0.051,0.079,0.077c0.024,0.027,0.052,0.052,0.077,0.078c0.026,0.029,0.057,0.056,0.084,0.084    c0.024,0.027,0.053,0.052,0.078,0.078s0.055,0.054,0.081,0.08c0.025,0.026,0.054,0.053,0.08,0.08    c0.024,0.026,0.052,0.051,0.078,0.077c0.025,0.027,0.055,0.055,0.081,0.082c0.024,0.027,0.054,0.053,0.08,0.078    c0.025,0.027,0.054,0.054,0.08,0.08c0.024,0.027,0.054,0.054,0.08,0.08c0.025,0.027,0.055,0.055,0.081,0.082    c0.024,0.025,0.053,0.051,0.079,0.077c0.025,0.028,0.055,0.056,0.082,0.082c0.024,0.026,0.053,0.052,0.078,0.077    c0.024,0.027,0.053,0.053,0.078,0.078c0.026,0.029,0.057,0.057,0.084,0.085c0.024,0.026,0.053,0.052,0.079,0.078    c0.024,0.026,0.053,0.052,0.078,0.077c0.025,0.027,0.055,0.055,0.081,0.082c0.024,0.025,0.053,0.052,0.078,0.076    c0.025,0.028,0.055,0.056,0.082,0.084c0.025,0.026,0.055,0.053,0.081,0.08c0.024,0.025,0.052,0.049,0.076,0.075    c0.026,0.028,0.057,0.056,0.084,0.084c0.023,0.026,0.052,0.052,0.077,0.076c0.026,0.028,0.056,0.056,0.083,0.083    c0.023,0.025,0.052,0.051,0.076,0.076c0.026,0.027,0.056,0.056,0.083,0.084c0.023,0.025,0.051,0.05,0.075,0.074    c0.025,0.029,0.056,0.056,0.083,0.084c0.025,0.027,0.056,0.055,0.083,0.082c0.024,0.025,0.052,0.051,0.077,0.076    c0.024,0.025,0.053,0.052,0.078,0.078c0.026,0.028,0.056,0.055,0.083,0.084c0.024,0.025,0.053,0.051,0.078,0.077    c0.025,0.027,0.054,0.054,0.08,0.08c0.024,0.026,0.053,0.052,0.079,0.078c0.025,0.028,0.055,0.056,0.082,0.082    c0.024,0.026,0.054,0.054,0.079,0.079c0.025,0.027,0.055,0.054,0.081,0.08c0.024,0.027,0.052,0.052,0.078,0.078    c0.024,0.027,0.054,0.053,0.08,0.08c0.025,0.027,0.055,0.054,0.082,0.082c0.025,0.026,0.054,0.053,0.08,0.078    c0.024,0.027,0.054,0.054,0.08,0.08c0.024,0.026,0.053,0.053,0.078,0.078c0.024,0.026,0.053,0.053,0.079,0.078    c0.026,0.029,0.057,0.057,0.083,0.084c0.024,0.027,0.053,0.053,0.079,0.078c0.024,0.027,0.053,0.053,0.078,0.078    c0.025,0.027,0.055,0.055,0.082,0.082c0.024,0.025,0.053,0.052,0.078,0.078c0.026,0.027,0.056,0.055,0.083,0.083    c0.024,0.026,0.053,0.052,0.078,0.077c0.024,0.026,0.053,0.052,0.078,0.078c0.026,0.027,0.056,0.055,0.083,0.082    c0.024,0.026,0.053,0.051,0.078,0.078s0.056,0.055,0.083,0.082c0.023,0.025,0.051,0.051,0.076,0.076    c0.026,0.028,0.057,0.057,0.084,0.085c0.024,0.026,0.053,0.052,0.078,0.077c0.024,0.025,0.053,0.052,0.079,0.078    c0.025,0.027,0.054,0.054,0.08,0.081c0.025,0.026,0.054,0.053,0.08,0.079c0.024,0.025,0.052,0.052,0.078,0.078    c0.026,0.029,0.057,0.057,0.085,0.084c0.024,0.026,0.052,0.052,0.077,0.078c0.024,0.025,0.053,0.051,0.079,0.078    c0.025,0.027,0.056,0.055,0.083,0.082c0.024,0.026,0.052,0.051,0.077,0.077c0.025,0.027,0.055,0.054,0.082,0.082    c0.024,0.027,0.054,0.054,0.079,0.079c0.025,0.027,0.054,0.053,0.08,0.079c0.024,0.026,0.052,0.052,0.077,0.078    c0.026,0.028,0.057,0.056,0.084,0.084c0.023,0.026,0.051,0.05,0.076,0.075c0.026,0.027,0.056,0.055,0.083,0.082    c0.024,0.026,0.053,0.053,0.078,0.078c0.024,0.026,0.053,0.053,0.078,0.078c0.027,0.03,0.058,0.059,0.086,0.088    c0.023,0.024,0.051,0.049,0.075,0.073c0.025,0.027,0.054,0.054,0.08,0.08c0.025,0.027,0.055,0.054,0.082,0.082    c0.024,0.026,0.053,0.052,0.078,0.077c0.025,0.027,0.055,0.055,0.082,0.082c0.024,0.025,0.053,0.051,0.078,0.077    c0.025,0.026,0.055,0.054,0.081,0.081c0.024,0.025,0.053,0.052,0.079,0.078c0.025,0.027,0.054,0.055,0.081,0.082    c0.025,0.026,0.055,0.054,0.082,0.08c0.024,0.027,0.053,0.053,0.078,0.078c0.025,0.027,0.054,0.053,0.08,0.08    c0.025,0.026,0.054,0.053,0.08,0.079c0.025,0.027,0.054,0.054,0.081,0.081c0.024,0.026,0.053,0.053,0.079,0.078    c0.025,0.027,0.054,0.055,0.081,0.081c0.025,0.026,0.055,0.053,0.081,0.08c0.024,0.026,0.053,0.052,0.078,0.078    c0.024,0.026,0.053,0.052,0.079,0.079c0.025,0.027,0.056,0.055,0.083,0.082c0.025,0.027,0.054,0.054,0.08,0.08    c0.024,0.026,0.054,0.053,0.079,0.078c0.024,0.026,0.052,0.051,0.078,0.078c0.025,0.027,0.056,0.055,0.083,0.084    c0.024,0.025,0.053,0.051,0.079,0.078c0.024,0.025,0.052,0.051,0.077,0.076c0.026,0.029,0.056,0.057,0.083,0.084    c0.024,0.025,0.052,0.051,0.078,0.077c0.025,0.028,0.055,0.055,0.082,0.082c0.024,0.026,0.053,0.052,0.078,0.077    c0.025,0.029,0.055,0.055,0.082,0.082c0.024,0.027,0.052,0.052,0.078,0.078c0.024,0.026,0.054,0.053,0.08,0.08    c0.025,0.027,0.056,0.055,0.083,0.082c0.023,0.025,0.051,0.049,0.075,0.074c0.026,0.029,0.057,0.057,0.085,0.086    c0.023,0.025,0.051,0.051,0.076,0.075c0.025,0.028,0.055,0.056,0.082,0.083c0.024,0.025,0.053,0.053,0.079,0.078    c0.025,0.027,0.054,0.053,0.08,0.08c0.025,0.027,0.054,0.053,0.08,0.079c0.025,0.026,0.054,0.054,0.081,0.079    c0.024,0.027,0.053,0.054,0.079,0.08c0.025,0.026,0.054,0.054,0.081,0.08c0.025,0.027,0.054,0.054,0.08,0.08    c0.025,0.027,0.054,0.053,0.08,0.08c0.024,0.026,0.053,0.053,0.079,0.078c0.025,0.027,0.054,0.053,0.08,0.08    c0.025,0.027,0.055,0.055,0.082,0.081c0.024,0.027,0.053,0.054,0.079,0.079c0.025,0.027,0.054,0.053,0.08,0.08    c0.025,0.027,0.054,0.053,0.08,0.08c0.025,0.027,0.054,0.052,0.08,0.079c0.024,0.026,0.053,0.052,0.078,0.077    c0.025,0.027,0.054,0.055,0.08,0.082c0.026,0.026,0.056,0.055,0.083,0.082c0.024,0.025,0.053,0.052,0.078,0.078    c0.024,0.025,0.053,0.051,0.079,0.077c0.025,0.028,0.056,0.056,0.083,0.083c0.024,0.026,0.054,0.053,0.079,0.079    c0.024,0.026,0.053,0.052,0.078,0.077c0.024,0.027,0.054,0.055,0.079,0.08c0.026,0.027,0.056,0.056,0.083,0.083    c0.024,0.026,0.053,0.052,0.078,0.078s0.054,0.053,0.08,0.079c0.025,0.027,0.056,0.055,0.083,0.082    c0.023,0.025,0.051,0.051,0.076,0.076c0.025,0.026,0.055,0.054,0.082,0.082c0.024,0.025,0.053,0.051,0.079,0.078    c0.025,0.027,0.055,0.055,0.082,0.082c0.024,0.026,0.053,0.053,0.079,0.078c0.025,0.028,0.056,0.055,0.083,0.082    c0.023,0.025,0.051,0.051,0.077,0.075c0.024,0.028,0.053,0.054,0.08,0.081c0.025,0.027,0.055,0.053,0.079,0.08    s0.054,0.052,0.079,0.078c0.025,0.029,0.057,0.057,0.084,0.084c0.023,0.027,0.053,0.052,0.076,0.076    c0.025,0.028,0.057,0.056,0.083,0.084c0.022,0.025,0.052,0.05,0.077,0.076c0.023,0.026,0.054,0.053,0.078,0.08    c0.025,0.026,0.056,0.053,0.082,0.08c0.023,0.026,0.054,0.053,0.078,0.078c0.024,0.028,0.055,0.055,0.08,0.081    c0.025,0.028,0.057,0.056,0.082,0.082c0.024,0.026,0.053,0.052,0.078,0.078c0.023,0.024,0.053,0.051,0.076,0.075    c0.027,0.029,0.059,0.059,0.086,0.088c0.023,0.025,0.053,0.05,0.077,0.076c0.024,0.025,0.054,0.051,0.077,0.076    c0.025,0.028,0.057,0.057,0.084,0.084c0.023,0.027,0.054,0.054,0.08,0.08c0.023,0.026,0.053,0.053,0.078,0.078    c0.022,0.025,0.052,0.051,0.076,0.076c0.026,0.029,0.059,0.059,0.086,0.087c0.022,0.025,0.052,0.05,0.074,0.074    c0.025,0.028,0.057,0.054,0.082,0.082c0.024,0.026,0.055,0.053,0.08,0.08c0.024,0.026,0.055,0.053,0.081,0.08    c0.022,0.026,0.052,0.052,0.077,0.077c0.025,0.027,0.057,0.055,0.082,0.082c0.023,0.026,0.053,0.052,0.078,0.078    c0.023,0.027,0.054,0.054,0.08,0.08c0.023,0.026,0.054,0.053,0.078,0.08c0.025,0.026,0.056,0.053,0.08,0.079    c0.025,0.028,0.056,0.054,0.082,0.081c0.023,0.027,0.053,0.053,0.078,0.077c0.024,0.028,0.055,0.056,0.08,0.082    c0.024,0.026,0.053,0.052,0.078,0.078s0.055,0.054,0.081,0.081c0.025,0.027,0.056,0.053,0.08,0.08s0.056,0.054,0.081,0.08    c0.023,0.027,0.053,0.052,0.077,0.078s0.054,0.053,0.08,0.078c0.024,0.028,0.056,0.056,0.082,0.084    c0.024,0.025,0.053,0.051,0.077,0.076c0.024,0.028,0.055,0.055,0.08,0.081c0.024,0.026,0.054,0.052,0.078,0.077    c0.026,0.029,0.058,0.057,0.086,0.086c0.022,0.025,0.051,0.051,0.074,0.075c0.025,0.026,0.055,0.053,0.08,0.079    c0.024,0.027,0.055,0.054,0.08,0.081c0.025,0.028,0.055,0.054,0.081,0.081c0.024,0.027,0.054,0.052,0.079,0.078    c0.023,0.026,0.053,0.053,0.078,0.078c0.025,0.028,0.057,0.057,0.084,0.084c0.023,0.026,0.052,0.051,0.076,0.076    c0.025,0.027,0.055,0.055,0.08,0.081c0.025,0.027,0.056,0.054,0.08,0.08s0.054,0.052,0.078,0.078    c0.025,0.026,0.055,0.054,0.082,0.081c0.023,0.025,0.053,0.052,0.077,0.078c0.026,0.027,0.058,0.056,0.084,0.084    c0.023,0.025,0.052,0.05,0.076,0.076c0.024,0.027,0.056,0.054,0.081,0.08c0.025,0.027,0.055,0.054,0.08,0.08    c0.023,0.026,0.054,0.053,0.079,0.078c0.024,0.028,0.054,0.055,0.08,0.082c0.024,0.025,0.054,0.051,0.079,0.078    c0.024,0.027,0.055,0.055,0.08,0.081c0.024,0.027,0.055,0.052,0.08,0.079c0.024,0.028,0.056,0.055,0.082,0.082    c0.022,0.025,0.051,0.051,0.076,0.075c0.024,0.026,0.055,0.054,0.079,0.081c0.025,0.027,0.056,0.054,0.081,0.081    c0.025,0.026,0.057,0.054,0.082,0.081c0.021,0.025,0.051,0.049,0.073,0.074c0.026,0.028,0.06,0.058,0.086,0.086    c0.024,0.026,0.053,0.052,0.078,0.078c0.024,0.025,0.053,0.051,0.077,0.078c0.025,0.027,0.057,0.055,0.084,0.082    c0.023,0.026,0.053,0.053,0.078,0.078c0.023,0.026,0.054,0.053,0.078,0.079s0.055,0.054,0.08,0.079    c0.024,0.027,0.057,0.057,0.082,0.084c0.024,0.025,0.053,0.051,0.078,0.077c0.023,0.024,0.053,0.051,0.076,0.075    c0.027,0.029,0.059,0.059,0.086,0.088c0.023,0.025,0.053,0.05,0.077,0.076c0.024,0.025,0.053,0.052,0.078,0.078    c0.024,0.026,0.055,0.053,0.079,0.08c0.027,0.028,0.058,0.055,0.084,0.084c0.023,0.025,0.053,0.051,0.078,0.076    c0.023,0.026,0.053,0.053,0.078,0.078c0.025,0.028,0.056,0.055,0.082,0.083c0.024,0.026,0.053,0.052,0.078,0.078    s0.055,0.053,0.08,0.08c0.024,0.026,0.053,0.051,0.077,0.077c0.026,0.029,0.058,0.056,0.084,0.085    c0.024,0.026,0.054,0.051,0.078,0.077s0.054,0.052,0.079,0.078c0.025,0.027,0.054,0.054,0.08,0.08    c0.025,0.027,0.055,0.055,0.08,0.082c0.025,0.026,0.055,0.051,0.08,0.078c0.023,0.026,0.054,0.053,0.078,0.079    c0.025,0.027,0.056,0.054,0.08,0.08c0.025,0.026,0.056,0.054,0.08,0.08c0.025,0.026,0.055,0.054,0.082,0.08    c0.022,0.026,0.053,0.052,0.076,0.078c0.025,0.026,0.055,0.054,0.081,0.081c0.024,0.025,0.054,0.052,0.078,0.078    c0.026,0.027,0.056,0.055,0.083,0.082c0.023,0.026,0.053,0.053,0.078,0.078c0.025,0.027,0.055,0.054,0.08,0.08    c0.025,0.027,0.055,0.055,0.08,0.082c0.025,0.025,0.053,0.051,0.078,0.075c0.024,0.028,0.055,0.056,0.08,0.082    c0.024,0.026,0.055,0.052,0.08,0.079c0.024,0.027,0.055,0.055,0.08,0.081c0.024,0.026,0.055,0.052,0.079,0.079    c0.025,0.027,0.056,0.053,0.08,0.08c0.025,0.027,0.056,0.053,0.081,0.08c0.023,0.025,0.053,0.052,0.077,0.078    s0.056,0.054,0.081,0.08c0.023,0.026,0.053,0.053,0.078,0.078c0.025,0.028,0.056,0.055,0.083,0.084    c0.024,0.025,0.053,0.051,0.077,0.077c0.025,0.027,0.056,0.054,0.08,0.08c0.025,0.027,0.056,0.054,0.082,0.08    c0.022,0.026,0.053,0.052,0.076,0.078c0.025,0.026,0.055,0.054,0.082,0.081c0.024,0.027,0.055,0.053,0.079,0.08    c0.024,0.025,0.054,0.052,0.078,0.078c0.024,0.027,0.056,0.055,0.082,0.082c0.024,0.027,0.054,0.052,0.079,0.078    c0.025,0.028,0.057,0.055,0.082,0.082c0.023,0.025,0.051,0.05,0.074,0.074c0.025,0.028,0.057,0.055,0.082,0.084    c0.025,0.026,0.056,0.053,0.082,0.08c0.023,0.026,0.053,0.051,0.078,0.077c0.023,0.027,0.054,0.054,0.078,0.08    c0.025,0.026,0.055,0.054,0.082,0.081c0.023,0.025,0.053,0.052,0.077,0.078c0.026,0.027,0.056,0.055,0.083,0.083    c0.024,0.026,0.053,0.052,0.078,0.077c0.025,0.027,0.055,0.054,0.08,0.08c0.023,0.027,0.052,0.052,0.076,0.076    c0.027,0.029,0.059,0.059,0.086,0.088c0.023,0.025,0.053,0.05,0.076,0.076c0.025,0.025,0.055,0.051,0.08,0.078    c0.024,0.027,0.055,0.055,0.08,0.081c0.024,0.027,0.055,0.052,0.08,0.079c0.024,0.027,0.055,0.053,0.08,0.08    c0.024,0.027,0.055,0.053,0.08,0.08c0.023,0.025,0.053,0.052,0.078,0.079c0.025,0.026,0.055,0.053,0.08,0.08    c0.023,0.026,0.053,0.051,0.077,0.077c0.026,0.029,0.058,0.056,0.085,0.084c0.023,0.027,0.053,0.052,0.077,0.078    c0.024,0.025,0.053,0.052,0.077,0.078c0.025,0.026,0.056,0.053,0.082,0.08c0.025,0.028,0.056,0.055,0.082,0.084    c0.023,0.025,0.053,0.051,0.078,0.076c0.023,0.026,0.054,0.053,0.078,0.078c0.024,0.028,0.055,0.055,0.08,0.081    c0.025,0.028,0.055,0.054,0.082,0.081c0.023,0.027,0.053,0.052,0.078,0.079c0.025,0.028,0.057,0.054,0.082,0.082    c0.023,0.024,0.051,0.049,0.075,0.073c0.024,0.028,0.056,0.056,0.082,0.084c0.024,0.025,0.053,0.052,0.078,0.078    c0.024,0.026,0.056,0.055,0.082,0.082c0.024,0.026,0.055,0.053,0.079,0.08c0.695,0.768,1.843,1.385,3.742,1.385    c2.047,0,3.166-0.609,3.782-1.25h0.074c-0.002,0.024-0.004,0.054-0.006,0.078h0.087c-0.003,0.026-0.005,0.056-0.007,0.08h0.086    c-0.002,0.025-0.004,0.055-0.007,0.08h0.086c-0.002,0.025-0.004,0.055-0.006,0.079h0.086c-0.002,0.026-0.004,0.056-0.006,0.08    h0.086c-0.002,0.026-0.004,0.056-0.006,0.08h0.086c-0.002,0.024-0.004,0.054-0.006,0.079h0.086    c-0.004,0.025-0.006,0.055-0.008,0.08h0.088c-0.004,0.025-0.006,0.055-0.008,0.08h0.086c-0.002,0.025-0.004,0.055-0.006,0.08    h0.086c-0.002,0.025-0.004,0.054-0.006,0.078h0.085c-0.002,0.026-0.004,0.056-0.006,0.08h1.86l0.076-1.09    c0.002,0.002,0.004,0.004,0.006,0.008c0.024,0.025,0.061,0.059,0.09,0.09c0.021,0.021,0.052,0.049,0.074,0.072    c0.354,0.396,1.316,1.213,3.238,1.213c1.734,0,3.201-0.746,3.983-2.135c0.012,0.01,0.022,0.021,0.034,0.032    c0.026,0.026,0.052,0.056,0.078,0.08c0.027,0.024,0.053,0.056,0.08,0.079c0.027,0.027,0.053,0.057,0.082,0.082    c0.026,0.025,0.051,0.054,0.078,0.078c0.027,0.027,0.053,0.056,0.082,0.08c0.025,0.025,0.051,0.055,0.077,0.078    c0.026,0.026,0.052,0.056,0.079,0.08c0.027,0.026,0.053,0.056,0.081,0.08c0.026,0.025,0.05,0.055,0.078,0.078    c0.026,0.027,0.054,0.059,0.083,0.084c0.025,0.024,0.051,0.053,0.078,0.077c0.027,0.026,0.052,0.056,0.08,0.08    c0.026,0.027,0.054,0.058,0.082,0.082c0.024,0.024,0.049,0.052,0.074,0.075c0.745,0.725,1.94,0.994,2.973,0.986    c1.397-0.006,2.316-0.344,3.015-0.949h0.034l0.005,0.08h0.075l0.005,0.078h0.075l0.005,0.08h0.073l0.006,0.08h0.074l0.006,0.08    h0.074l0.006,0.079h0.074l0.004,0.08h0.075l0.005,0.08l0.196-0.001l-0.006,0.012h0.122l-0.042,0.079h0.122l-0.043,0.08h0.121    l-0.041,0.079h0.121l-0.041,0.08h0.121l-0.041,0.08h0.121l-0.041,0.08h0.121l-0.043,0.079h0.122l-0.042,0.079h0.122l-0.042,0.08    h0.122l-0.042,0.08H72.7l-0.042,0.08h0.121l-0.041,0.08h0.121l-0.041,0.079h0.121l-0.043,0.08h0.123l-0.043,0.079H73.1    l-0.041,0.08h0.121l-0.041,0.079h0.12l-0.042,0.08h0.122l-0.042,0.079h0.122l-0.042,0.08h0.122l-0.042,0.08h0.121l-0.042,0.08    h0.122l-0.042,0.08h0.12l-0.041,0.08h0.121l-0.041,0.078h0.121l-0.041,0.08h0.121l-0.041,0.08h0.121l-0.043,0.08h0.123    l-0.043,0.079h0.122l-0.042,0.08h0.122l-0.042,0.079h0.121l-0.042,0.08h0.122l-0.042,0.08h0.122l-0.042,0.08h0.121l-0.042,0.078    h0.121l-0.041,0.08h0.121l-0.041,0.08h0.121l-0.043,0.079h0.123l-0.041,0.08h0.121l-0.043,0.08h2.148L83,60.066H82.88z" enable-background="new    " fill="url(#SVGID_3_)" opacity="0.3"/></g></g><g id="Ebay_1_"><polygon fill="#FFFFFF" id="y_2_" points="40.264,28.066 42.482,28.066 45.734,34.545 48.994,28.066 51,28.066 45.121,39.617    42.973,39.617 44.674,36.406  "/><path d="M41.313,34.439c0.004-1.306,0.041-2.473,0-3.294c-0.051-0.954,0.039-3.256-4.086-3.428   c0,0-3.953-0.359-4.36,2.584h2.021c0,0,0.155-1.348,2.209-1.311c1.938,0.037,2.293,0.989,2.283,2.161c0,0-1.663,0.004-2.22,0.008   c-1,0.005-4.503,0.115-4.829,2.247c-0.389,2.537,1.874,3.33,3.646,3.318c1.771-0.008,2.78-0.541,3.533-1.49l0.078,1.18l1.762-0.01   C41.352,36.406,41.307,35.746,41.313,34.439z M36.307,35.508c0,0-1.923,0.002-2.033-1.531c-0.119-1.638,2.953-1.539,2.953-1.539   l2.174-0.004C39.398,32.434,39.75,35.553,36.307,35.508z" fill="#FFFFFF" id="a_2_"/><path d="M27.91,27.746c-2.389-0.014-3.416,1.414-3.416,1.414v-4.777h-1.916L22.61,34.48   c0,0-0.011,1.177-0.083,1.953h1.861l0.08-1.134c0,0,0.868,1.427,3.405,1.427c2.535,0,4.537-1.561,4.591-4.458   C32.516,29.374,30.298,27.757,27.91,27.746z M27.472,35.436c-3.018,0.041-2.968-3.198-2.968-3.198s-0.11-3.117,2.963-3.196   c3.074-0.079,2.975,3.263,2.975,3.263S30.489,35.398,27.472,35.436z" fill="#FFFFFF" id="b_2_"/><path d="M17.913,27.746c-4.751-0.002-4.937,3.697-4.911,4.657c0,0-0.234,4.324,4.795,4.324   c4.321,0,4.534-2.713,4.534-2.713l-1.988,0.004c0,0-0.386,1.496-2.538,1.455c-2.764-0.052-2.872-2.729-2.872-2.729h7.658   C22.592,32.743,23.173,27.746,17.913,27.746z M14.997,31.432c0,0,0.135-2.42,2.868-2.42c2.724-0.003,2.724,2.42,2.724,2.42H14.997z   " fill="#FFFFFF" id="e_2_"/></g></svg>